<svg xmlns="http://www.w3.org/2000/svg" viewBox="60 40 460 560" role="img" aria-label="MP Studio"><defs><linearGradient id="mp-g" x1="0" y1="0" x2="1" y2="1"><stop offset="0" stop-color="#666b74"/><stop offset="1" stop-color="#2e3239"/></linearGradient></defs><clipPath id="mp-cm"><polygon points="1811.1 -1395.7 -884.4 1559.6 -3100.9 -462.0 -405.4 -3417.4"/></clipPath><clipPath id="mp-cp"><polygon points="1824.4 -1383.6 -871.1 1571.7 1345.4 3593.4 4040.9 638.0"/></clipPath><path fill="url(#mp-g)" clip-path="url(#mp-cm)" d="M395.00 58.00L395.00 58.00L395.00 65.07Q383.69 65.42 377.69 67.72Q371.68 70.01 369.74 76.19Q367.80 82.38 367.80 95.45L367.80 95.45L367.80 270.68Q367.80 283.40 369.92 289.76Q372.04 296.12 377.87 298.24Q383.69 300.36 395.00 301.07L395.00 301.07L395.00 308.13Q385.81 307.43 371.68 307.25Q357.55 307.07 343.07 307.07L343.07 307.07Q327.17 307.07 313.21 307.25Q299.26 307.43 290.78 308.13L290.78 308.13L290.78 301.07Q302.79 300.36 308.97 298.24Q315.16 296.12 317.28 289.76Q319.40 283.40 319.40 270.68L319.40 270.68L319.40 85.20L234.25 309.19L228.60 309.19L135.33 80.61L135.33 255.84Q135.33 272.80 137.45 282.16Q139.57 291.53 146.81 295.59Q154.05 299.65 168.89 301.07L168.89 301.07L168.89 308.13Q162.18 307.43 151.58 307.25Q140.98 307.07 131.44 307.07L131.44 307.07Q122.96 307.07 114.31 307.25Q105.65 307.43 100.00 308.13L100.00 308.13L100.00 301.07Q111.66 299.65 117.49 295.77Q123.32 291.88 125.26 283.05Q127.20 274.22 127.20 258.67L127.20 258.67L127.20 95.45Q127.20 82.38 125.26 76.19Q123.32 70.01 117.49 67.72Q111.66 65.42 100.00 65.07L100.00 65.07L100.00 58.00Q105.65 58.35 114.31 58.71Q122.96 59.06 131.44 59.06L131.44 59.06Q144.51 59.06 156.88 58.71Q169.25 58.35 178.78 58.00L178.78 58.00L251.92 241.01L320.81 59.06L343.07 59.06Q357.55 59.06 371.68 58.71Q385.81 58.35 395.00 58.00"/><path fill="url(#mp-g)" clip-path="url(#mp-cp)" d="M302.00 242.12L302.00 236.00Q309.65 236.31 321.59 236.61Q333.52 236.92 345.46 236.92L345.46 236.92Q360.46 236.92 373.92 236.61Q387.39 236.31 392.90 236.31L392.90 236.31Q433.91 236.31 453.95 253.14Q474.00 269.97 474.00 296.60L474.00 296.60Q474.00 307.62 470.02 319.70Q466.04 331.79 456.25 342.05Q446.46 352.30 429.47 358.73Q412.48 365.15 386.16 365.15L386.16 365.15L367.49 365.15L367.49 419.02Q367.49 430.65 369.94 436.46Q372.39 442.28 379.43 444.11Q386.47 445.95 399.63 446.26L399.63 446.26L399.63 452.68Q390.75 452.07 376.68 451.92Q362.60 451.77 347.60 451.77L347.60 451.77Q334.75 451.77 322.81 451.92Q310.88 452.07 302.00 452.68L302.00 452.68L302.00 446.56Q312.10 445.95 317.15 444.11Q322.20 442.28 323.88 436.77Q325.57 431.26 325.57 420.24L325.57 420.24L325.57 268.44Q325.57 257.12 323.88 251.76Q322.20 246.41 317.15 244.42Q312.10 242.43 302.00 242.12L302.00 242.12M367.49 268.44L367.49 359.03L383.10 359.03Q402.38 359.03 412.64 350.77Q422.89 342.51 426.41 329.04Q429.93 315.57 429.93 299.96L429.93 299.96Q429.93 270.89 420.44 256.51Q410.95 242.12 387.69 242.12L387.69 242.12Q375.15 242.12 371.32 247.32Q367.49 252.53 367.49 268.44L367.49 268.44"/><path d="M470 88L138 452" stroke="url(#mp-g)" stroke-width="6.5" stroke-linecap="square"/><path fill="url(#mp-g)" d="M137.15 535.91L137.15 535.91L131.91 539.62Q133.09 542.14 135.20 544.30Q137.31 546.46 140.16 547.72Q143.02 548.98 146.31 548.98L146.31 548.98Q148.78 548.98 151.01 548.23Q153.25 547.49 155.05 546.07Q156.85 544.66 157.88 542.60Q158.91 540.54 158.91 537.92L158.91 537.92Q158.91 535.61 158.16 533.83Q157.42 532.06 156.11 530.75Q154.79 529.43 153.17 528.51Q151.55 527.58 149.81 526.97L149.81 526.97Q147.08 526.04 145.28 525.14Q143.48 524.24 142.61 523.24Q141.73 522.23 141.73 520.90L141.73 520.90Q141.73 519.56 142.81 518.56Q143.89 517.55 146.05 517.55L146.05 517.55Q147.70 517.55 148.98 518.20Q150.27 518.84 151.27 519.89Q152.27 520.95 152.99 522.23L152.99 522.23L158.75 519.05Q157.83 517.14 156.16 515.37Q154.49 513.59 151.99 512.44Q149.50 511.28 146.05 511.28L146.05 511.28Q142.71 511.28 140.01 512.49Q137.31 513.70 135.74 515.93Q134.17 518.17 134.17 521.26L134.17 521.26Q134.17 523.83 135.15 525.65Q136.13 527.48 137.62 528.74Q139.11 530.00 140.78 530.80Q142.45 531.59 143.74 532.06L143.74 532.06Q146.15 532.98 147.83 533.78Q149.50 534.58 150.35 535.61Q151.19 536.63 151.19 538.33L151.19 538.33Q151.19 540.29 149.81 541.42Q148.42 542.55 146.21 542.55L146.21 542.55Q144.30 542.55 142.66 541.73Q141.01 540.90 139.65 539.41Q138.29 537.92 137.15 535.91M191.05 524.34L186.99 524.34L186.99 529.95L191.05 529.95L191.05 548.00L197.48 548.00L197.48 529.95L201.59 529.95L201.59 524.34L197.48 524.34L197.48 516.11L191.05 516.11L191.05 524.34M237.75 538.74L237.75 538.74L237.75 524.34L230.86 524.34L230.86 539.46Q230.86 543.68 232.94 546.10Q235.02 548.51 239.24 548.51L239.24 548.51Q241.76 548.51 243.51 547.46Q245.26 546.41 246.39 544.40L246.39 544.40L246.39 548.00L253.02 548.00L253.02 524.34L246.39 524.34L246.39 538.74Q246.39 540.23 245.80 541.31Q245.21 542.39 244.15 542.99Q243.10 543.58 241.66 543.58L241.66 543.58Q239.60 543.58 238.67 542.32Q237.75 541.06 237.75 538.74M309.85 507.89L303.17 507.89L303.17 528.15Q302.03 526.40 300.39 525.32L300.39 525.32Q298.07 523.83 295.09 523.83L295.09 523.83Q292.16 523.83 289.54 525.27Q286.91 526.71 285.32 529.46Q283.73 532.21 283.73 536.17L283.73 536.17Q283.73 540.08 285.32 542.86Q286.91 545.63 289.54 547.07Q292.16 548.51 295.09 548.51L295.09 548.51Q298.07 548.51 300.39 547.02L300.39 547.02Q302.03 545.94 303.17 544.19L303.17 544.19L303.17 548.00L309.85 548.00L309.85 507.89M290.62 536.17L290.62 536.17Q290.62 534.06 291.49 532.52Q292.37 530.98 293.86 530.15Q295.35 529.33 297.05 529.33L297.05 529.33Q298.54 529.33 299.95 530.13Q301.37 530.93 302.27 532.47Q303.17 534.01 303.17 536.17Q303.17 538.33 302.27 539.87Q301.37 541.42 299.95 542.21Q298.54 543.01 297.05 543.01L297.05 543.01Q295.35 543.01 293.86 542.19Q292.37 541.37 291.49 539.82Q290.62 538.28 290.62 536.17M341.69 515.19L341.69 515.19Q341.69 516.78 342.87 517.86Q344.05 518.94 345.70 518.94L345.70 518.94Q347.34 518.94 348.50 517.86Q349.66 516.78 349.66 515.19L349.66 515.19Q349.66 513.54 348.50 512.49Q347.34 511.43 345.70 511.43L345.70 511.43Q344.05 511.43 342.87 512.49Q341.69 513.54 341.69 515.19M348.89 524.34L342.41 524.34L342.41 548.00L348.89 548.00L348.89 524.34M380.05 536.17L380.05 536.17Q380.05 539.82 381.77 542.63Q383.50 545.43 386.45 546.97Q389.41 548.51 393.17 548.51L393.17 548.51Q396.92 548.51 399.88 546.97Q402.83 545.43 404.56 542.63Q406.28 539.82 406.28 536.17L406.28 536.17Q406.28 532.47 404.56 529.69Q402.83 526.91 399.88 525.37Q396.92 523.83 393.17 523.83L393.17 523.83Q389.41 523.83 386.45 525.37Q383.50 526.91 381.77 529.69Q380.05 532.47 380.05 536.17M386.84 536.17L386.84 536.17Q386.84 534.17 387.69 532.62Q388.54 531.08 389.98 530.26Q391.42 529.43 393.17 529.43L393.17 529.43Q394.91 529.43 396.35 530.26Q397.79 531.08 398.64 532.62Q399.49 534.17 399.49 536.17L399.49 536.17Q399.49 538.18 398.64 539.69Q397.79 541.21 396.35 542.06Q394.91 542.91 393.17 542.91L393.17 542.91Q391.42 542.91 389.98 542.06Q388.54 541.21 387.69 539.69Q386.84 538.18 386.84 536.17M437.60 544.97L437.60 544.97Q437.60 546.61 438.81 547.85Q440.02 549.08 441.82 549.08L441.82 549.08Q443.67 549.08 444.85 547.85Q446.03 546.61 446.03 544.97L446.03 544.97Q446.03 543.22 444.85 542.01Q443.67 540.80 441.82 540.80L441.82 540.80Q440.02 540.80 438.81 542.01Q437.60 543.22 437.60 544.97"/></svg>